# xmcd
#
# Track frame offsets: 
#        150
#        8332
#        31968
#        57433
#        82315
#        102664
#        105684
#        131200
#        151957
#        170363
#        205026
#        212531
#        232417
#        245543
#
# Disc length: 3730 seconds
#
# Revision: 0
# Processed by: cddbd v1.5.2PL0 Copyright (c) Steve Scherf et al.
# Submitted via: ExactAudioCopy v0.99pb4
#
DISCID=c10e900e
DTITLE=Freakbass - Body Over Mind
DYEAR=1900
DGENRE=Funk
TTITLE0=Intro
TTITLE1=Hear Me Play
TTITLE2=Mission
TTITLE3=Body Over Mind
TTITLE4=Sense Of Anxiety
TTITLE5=Connect
TTITLE6=Freakbass 2YK
TTITLE7=Body Baby
TTITLE8=Thang
TTITLE9=Do What You Gotta Do
TTITLE10=Peppermint Leather
TTITLE11=She's Already There
TTITLE12=Silver 17
TTITLE13=Fame
EXTD=
EXTT0=
EXTT1=
EXTT2=
EXTT3=
EXTT4=
EXTT5=
EXTT6=
EXTT7=
EXTT8=
EXTT9=
EXTT10=
EXTT11=
EXTT12=
EXTT13=
PLAYORDER=
